<?xml version="1.0" encoding="UTF-8"?>
<svg width="680px" height="718px" viewBox="0 0 680 718" version="1.1" xmlns="http://www.w3.org/2000/svg" xmlns:xlink="http://www.w3.org/1999/xlink">
    <!-- Generator: Sketch 48.2 (47327) - http://www.bohemiancoding.com/sketch -->
    <title>Logo (Dark)</title>
    <desc>Created with Sketch.</desc>
    <defs></defs>
    <g id="Logo" stroke="none" stroke-width="1" fill="none" fill-rule="evenodd" transform="translate(-54.000000, -41.000000)">
        <g id="Logo-(Dark)" transform="translate(64.000000, 50.000000)">
            <g id="Logo">
                <g id="OutPlug" transform="translate(635.621762, 448.834197) rotate(210.000000) translate(-635.621762, -448.834197) translate(612.953368, 415.284974)" fill="#151515">
                    <path d="M10.9058541,0.613993391 L32.5395258,0.613993391 C34.9632832,0.613993391 36.9281269,2.57883704 36.9281269,5.00259452 L36.9281269,22.0505585 L6.51725298,22.0505585 L6.51725298,5.00259452 C6.51725298,2.57883704 8.48209663,0.613993391 10.9058541,0.613993391 Z" id="Rectangle-2"></path>
                    <rect id="Rectangle-2" x="-1.13686838e-13" y="19.7591039" width="44.7218734" height="46.1710632" rx="4.67336727"></rect>
                </g>
                <path d="M653.106909,413.738295 C677.314483,371.079627 639.274186,275.021108 530.122612,275.021108 C461.633691,275.021108 416.061299,323.426603 416.061299,375.486514 M434.613069,540.933666 C434.613069,551.876187 449.476011,579.286871 449.476011,595.028666 C449.476011,642.716024 325.079219,562.515094 349.771869,595.028666 C375.182929,623.747022 383.993469,663.586108 359.931774,663.518646 C316.72494,663.397508 317.247185,700 298.284255,700 C279.321324,700 286.425331,663.518646 246.16661,663.518646 C222.585432,663.518646 227.236774,639.61591 260.120638,591.810437 C261.338767,590.039278 260.892463,587.614686 259.123658,586.394866 C257.611088,585.351753 255.575884,585.510422 254.242796,586.775389 L244.30158,596.20861 C221.613015,617.737783 185.971006,617.407103 163.684769,595.460661 C126.521252,558.644208 156.32017,517.016929 176.269168,517.016929 C196.218166,517.016929 180.363876,544.616058 203.060164,556.50474 C225.756452,568.393423 244.567125,537.476366 248.649443,528.227738 C252.731761,518.97911 238.342188,525.678394 234.57204,503.90312 C230.801893,482.127846 248.649443,481.249539 246.16661,472.91012 C243.683776,464.570701 198.553472,389.709612 128.916115,401.377591 C59.2787587,413.045571 105.278929,491.228465 83.2678248,498.741373 C61.2567201,506.254282 22.2552764,473.537894 4.80941595,419.563064 C-12.5288914,365.920987 15.2674773,266.638441 116.762034,279.799543 C218.25659,292.960645 237.413311,387.633203 252.517942,401.377591 C267.622574,415.12198 209.308774,338.425453 209.308774,244.241595 C209.308774,150.057737 288.488428,5.35026295e-14 298.284255,0 C304.176837,-2.95704547e-14 387.326268,139.304207 387.326268,244.241595 C387.326268,318.884799 364.870755,310.935918 364.870755,359.074327" id="Cable" stroke="#151515" stroke-width="18.134715"></path>
                <g id="Controller" transform="translate(272.020725, 371.761658)">
                    <path d="M155.695352,17.3188116 L145.319231,17.3188116 L79.404306,17.3188116 C36.3827352,19.1760519 0,55.9447385 0,97.5196687 C0,133.476447 27.3561894,172.291955 68.1413484,172.797502 C74.6245086,172.797502 83.0295335,169.682391 93.6728259,165.82702 C101.2508,163.017673 109.862588,159.914569 118.535408,157.598693 C141.001536,151.733185 170.437806,151.733185 192.808027,157.598693 C201.894372,160.008396 211.33321,163.31134 219.689658,166.22664 C231.622103,170.434688 238.579789,172.797502 243.250632,172.797502 C284.036426,172.151008 311.391961,133.325987 311.391961,97.5196687 C311.391961,55.1322579 276.616015,19.1754801 233.653608,17.3188116 L155.695352,17.3188116 Z" id="Outline" stroke="#151515" stroke-width="18.134715"></path>
                    <g id="ABXY" transform="translate(159.227215, 56.487847)" fill="#151515">
                        <path d="M74.4213739,18.7066056 C74.4213739,9.08982515 66.3175064,1.26071052 56.3632373,1.26071052 C46.3965827,1.26071052 38.2930249,9.08982515 38.2930249,18.7066056 C38.2930249,28.323386 46.3968923,36.1525006 56.3511614,36.1525006 C66.3178161,36.164197 74.4213739,28.3350525 74.4213739,18.7066056 Z" id="Fill-5"></path>
                        <path d="M104.414643,16.2143405 C94.4570454,16.2143405 86.3504684,24.043458 86.3504684,33.6602421 C86.3504684,43.2770261 94.4570454,51.1061437 104.414643,51.1061437 C114.37224,51.1061437 122.478817,43.2770261 122.478817,33.6602421 C122.478817,24.043458 114.37224,16.2143405 104.414643,16.2143405 Z" id="Fill-6"></path>
                        <path d="M18.6221413,32.6779094 C8.66454386,32.6779094 0.55796678,40.507027 0.55796678,50.1238111 C0.55796678,59.7405951 8.66454386,67.5697127 18.6221413,67.5697127 C28.5797387,67.5697127 36.6863158,59.7405951 36.6863158,50.1238111 C36.6863158,40.507027 28.5797387,32.6779094 18.6221413,32.6779094 Z" id="Fill-7"></path>
                        <path d="M66.6795848,47.6315394 C56.7219874,47.6315394 48.6154103,55.460657 48.6154103,65.077441 C48.6154103,74.694225 56.7219874,82.5233426 66.6795848,82.5233426 C76.6371822,82.5233426 84.7437593,74.694225 84.7437593,65.077441 C84.7437593,55.460657 76.6371822,47.6315394 66.6795848,47.6315394 Z" id="Fill-8"></path>
                    </g>
                    <path d="M86.5346993,83.7358251 L110.484564,83.7358251 C113.065593,83.7358251 115.157931,85.8281629 115.157931,88.4091924 L115.157931,97.6804248 C115.157931,100.261454 113.065593,102.353792 110.484564,102.353792 L86.5346993,102.353792 L86.5346993,126.586273 C86.5346993,129.167303 84.4423615,131.259641 81.861332,131.259641 L73.1553338,131.259641 C70.5743043,131.259641 68.4819665,129.167303 68.4819665,126.586273 L68.4819665,102.353792 L43.4016339,102.353792 C40.8206044,102.353792 38.7282666,100.261454 38.7282666,97.6804248 L38.7282666,88.4091924 C38.7282666,85.8281629 40.8206044,83.7358251 43.4016339,83.7358251 L68.4819665,83.7358251 L68.4819665,59.5033437 C68.4819665,56.9223143 70.5743043,54.8299765 73.1553338,54.8299765 L81.861332,54.8299765 C84.4423615,54.8299765 86.5346993,56.9223143 86.5346993,59.5033437 L86.5346993,83.7358251 Z" id="DPad" fill="#151515"></path>
                    <path d="M190.964131,50.1393387 C190.964131,46.6536604 188.641859,43.805677 185.799399,43.805677 L123.872164,43.8205239 C121.029797,43.8205239 118.707433,46.6683934 118.707433,50.1541856 C118.707433,53.6398639 121.029704,56.4878472 123.872164,56.4878472 L185.799399,56.4878472 C188.641766,56.4730003 190.964131,53.6251309 190.964131,50.1393767 L190.964131,50.1393387 Z" id="Deco" fill="#151515"></path>
                    <rect id="WireCap" stroke="#151515" stroke-width="8.70466356" fill="#151515" x="82.1717087" y="0" width="22.3651684" height="19.9955961" rx="0.997409326"></rect>
                </g>
            </g>
        </g>
    </g>
</svg>