<?xml version="1.0" encoding="UTF-8"?>
<svg width="442px" height="456px" viewBox="0 0 442 456" version="1.1" xmlns="http://www.w3.org/2000/svg" xmlns:xlink="http://www.w3.org/1999/xlink">
    <!-- Generator: Sketch 48.2 (47327) - http://www.bohemiancoding.com/sketch -->
    <title>Logo</title>
    <desc>Created with Sketch.</desc>
    <defs></defs>
    <g id="Page-1" stroke="none" stroke-width="1" fill="none" fill-rule="evenodd">
        <g id="Logo" transform="translate(8.000000, 8.000000)">
            <path d="M420.980653,262.852096 C436.638672,239.492187 414.457031,173.050781 343.691406,173.050781 C272.925781,173.050781 255.101562,253.905383 264.390625,286.765625 C270.822057,309.516941 291.40625,350.167959 291.40625,374.408264 C291.40625,404.41445 210.756778,353.949838 226.765625,374.408264 C243.240234,392.478637 256.996094,417.504027 233.352539,417.504027 C226.024414,417.504027 222.651367,408.984636 218.041992,408.984636 C202.439453,408.984636 205.67908,440.507813 193.38495,440.507813 C181.09082,440.507813 187.668773,408.984636 173.000977,408.984636 C170.203776,408.984636 167.579102,417.504027 159.595811,417.504027 C144.326687,417.504027 147.315621,402.501385 168.562613,372.4961 L168.562675,372.496144 C169.359943,371.370232 169.093524,369.811186 167.967611,369.013918 C167.005768,368.332829 165.698735,368.416673 164.831799,369.215077 L158.576884,374.975524 C143.61126,388.758099 120.50298,388.509549 105.837271,374.408264 C105.837271,374.408264 105.837271,374.408264 105.837271,374.408264 C82.0268104,351.514171 101.346175,325.321152 114.279596,325.321152 C127.213018,325.321152 116.934295,342.687276 131.648852,350.167959 C146.363409,357.648643 158.558827,338.194787 161.205493,332.375298 C163.852159,326.555809 154.523048,330.771181 152.078769,317.069585 C149.634491,303.367989 161.205493,302.815334 159.595811,297.567945 C157.98613,292.320555 128.727054,245.215916 83.5794586,252.557727 C38.4318636,259.899538 68.2548952,309.094347 53.9845597,313.821674 C39.7142242,318.549001 14.4286379,297.962957 3.11806155,264.000522 C-8.12278557,230.247464 9.89827754,167.776178 75.6996715,176.057503 C141.501066,184.338828 153.920834,243.909382 163.713535,252.557727 C173.506236,261.206071 135.699978,212.946524 135.699978,153.683473 C135.699978,94.4204206 187.034077,3.36653135e-14 193.38495,0 C197.205255,-1.86065366e-14 254.624452,91.3726797 251.113057,153.683473 C248.475849,200.481555 232.984425,200.226911 238.843775,231.632812" id="Cable" stroke="#202020" stroke-width="15"></path>
            <g id="Spacers" transform="translate(172.000000, 234.000000)" fill="#FFFFFF">
                <path d="M98.5143082,15.3296429 L91.9509065,15.3296429 L50.2565044,15.3296429 C23.0432646,16.6277433 0.0294117647,42.3268684 0.0294117647,71.385272 C0.0294117647,96.5169211 17.3335345,123.646653 43.1321349,124 C47.2330496,124 52.5496374,121.822723 59.2820385,119.128048 C64.0754766,117.164482 69.5228518,114.995597 75.008833,113.376937 C89.2197538,109.277296 107.839629,109.277296 121.989884,113.376937 C127.73744,115.061176 133.707965,117.369737 138.993825,119.407359 C146.541678,122.348534 150.942754,124 153.897289,124 C179.696291,123.548139 197,96.411759 197,71.385272 C197,41.7589929 175.00252,16.6273437 147.826704,15.3296429 L98.5143082,15.3296429 Z" id="Path"></path>
                <rect id="Rectangle-5" x="86" y="0" width="26" height="14"></rect>
            </g>
            <g id="Controller" transform="translate(172.029412, 232.985680)">
                <g id="OutPlug" transform="translate(236.344944, 49.499891) rotate(210.000000) translate(-236.344944, -49.499891) translate(222.344944, 26.999891)" stroke="#202020" stroke-width="7.61764706">
                    <rect id="Rectangle-2" fill="#202020" x="0" y="14.1479714" width="27.2058824" height="30.4725537" rx="4.35294118"></rect>
                    <path d="M8.70588235,0 L18.5,0 C20.904063,-4.41619214e-16 22.8529412,1.94887815 22.8529412,4.35294118 L22.8529412,14.1479714 L4.35294118,14.1479714 L4.35294118,4.35294118 C4.35294118,1.94887815 6.30181932,-4.46559206e-16 8.70588235,-8.8817842e-16 Z" id="Rectangle-2"></path>
                </g>
                <rect id="WireCap" stroke="#202020" stroke-width="12.441" fill="#FFFFFF" x="61" y="0" width="14.1470588" height="10.8830549" rx="1"></rect>
                <path d="M98.4848965,11.3439627 L91.9214948,11.3439627 L50.2270926,11.3439627 C23.0138528,12.5604702 0,36.6442593 0,63.8761773 C0,87.4281596 17.3041228,112.852634 43.1027232,113.183771 C47.2036379,113.183771 52.5202257,111.143348 59.2526268,108.618049 C64.0460648,106.777904 69.49344,104.745345 74.9794212,103.228427 C89.190342,99.3864721 107.810217,99.3864721 121.960472,103.228427 C127.708028,104.806802 133.678553,106.970258 138.964413,108.879803 C146.512266,111.636109 150.913342,113.183771 153.867877,113.183771 C179.66688,112.760312 196.970588,87.3296075 196.970588,63.8761773 C196.970588,36.112078 174.973108,12.5600957 147.797292,11.3439627 L98.4848965,11.3439627 Z M153.766616,106.616253 C151.958499,106.616253 146.511065,104.645211 141.225204,102.704919 C135.839283,100.733876 129.737971,98.50108 123.698113,96.8919212 C108.433014,92.7188308 88.6061122,92.7188308 73.2701043,96.8919212 C67.461094,98.4702923 61.8443254,100.602999 56.9200999,102.473912 C51.3110132,104.606578 45.9944254,106.616253 43.2323288,106.616253 L43.2323288,109.903951 L43.1630942,106.616253 C25.5052155,106.385266 6.56230303,89.1693782 6.56230303,63.8761773 C6.56230303,40.0226255 26.6905751,18.9955482 50.3879178,17.9193592 L147.657129,17.9193592 C170.840383,18.9664753 190.405296,39.9930599 190.405296,63.8761773 C190.405296,84.2094478 175.694073,106.253581 153.765138,106.616253 L153.766616,106.616253 Z" id="Fill-1" stroke="#202020" stroke-width="8"></path>
                <path d="M58.807798,52.556543 L70.7369086,52.556543 C73.1409716,52.556543 75.0898498,54.5054211 75.0898498,56.9094842 L75.0898498,64.9807306 C75.0898498,67.3847937 73.1409716,69.3336718 70.7369086,69.3336718 L58.807798,69.3336718 L58.807798,81.6231925 C58.807798,84.0272555 56.8589198,85.9761337 54.4548568,85.9761337 L46.3807385,85.9761337 C43.9766754,85.9761337 42.0277973,84.0272555 42.0277973,81.6231925 L42.0277973,69.3336718 L29.3807385,69.3336718 C26.9766754,69.3336718 25.0277973,67.3847937 25.0277973,64.9807306 L25.0277973,56.9094842 C25.0277973,54.5054211 26.9766754,52.556543 29.3807385,52.556543 L42.0277973,52.556543 L42.0277973,40.2670223 C42.0277973,37.8629593 43.9766754,35.9140811 46.3807385,35.9140811 L54.4548568,35.9140811 C56.8589198,35.9140811 58.807798,37.8629593 58.807798,40.2670223 L58.807798,52.556543 Z" id="DPad" fill="#202020"></path>
                <g id="ABXY" transform="translate(105.000000, 37.000000)" fill="#202020" stroke="#202020" stroke-width="1.08823529">
                    <path d="M42.7941176,12.252979 C42.7941176,5.95390951 37.6680266,0.825775656 31.3714664,0.825775656 C25.0670716,0.825775656 19.9411765,5.95390951 19.9411765,12.252979 C19.9411765,18.5520485 25.0672675,23.6801824 31.3638278,23.6801824 C37.6682225,23.6878436 42.7941176,18.5596902 42.7941176,12.252979 Z" id="Fill-5"></path>
                    <path d="M57.4852941,10.6205251 C51.1866285,10.6205251 46.0588235,15.7486608 46.0588235,22.0477327 C46.0588235,28.3468046 51.1866285,33.4749403 57.4852941,33.4749403 C63.7839597,33.4749403 68.9117647,28.3468046 68.9117647,22.0477327 C68.9117647,15.7486608 63.7839597,10.6205251 57.4852941,10.6205251 Z" id="Fill-6"></path>
                    <path d="M11.7794118,17.150358 C5.48074619,17.150358 0.352941176,22.2784938 0.352941176,28.5775656 C0.352941176,34.8766375 5.48074619,40.0047733 11.7794118,40.0047733 C18.0780773,40.0047733 23.2058824,34.8766375 23.2058824,28.5775656 C23.2058824,22.2784938 18.0780773,17.150358 11.7794118,17.150358 Z" id="Fill-7"></path>
                    <path d="M37.8970588,26.9451074 C31.5983932,26.9451074 26.4705882,32.0732432 26.4705882,38.372315 C26.4705882,44.6713869 31.5983932,49.7995227 37.8970588,49.7995227 C44.1957244,49.7995227 49.3235294,44.6713869 49.3235294,38.372315 C49.3235294,32.0732432 44.1957244,26.9451074 37.8970588,26.9451074 Z" id="Fill-8"></path>
                </g>
                <path d="M120.794118,31.557037 C120.794118,29.7623207 119.325168,28.2959427 117.527173,28.2959427 L78.3551796,28.3035871 C76.5572438,28.3035871 75.0882353,29.7699065 75.0882353,31.5646814 C75.0882353,33.3593976 76.5571851,34.8257757 78.3551796,34.8257757 L117.527173,34.8257757 C119.325109,34.8181312 120.794118,33.3518119 120.794118,31.5570565 L120.794118,31.557037 Z" id="Deco" stroke="#202020" stroke-width="1.08823529" fill="#202020"></path>
            </g>
        </g>
    </g>
</svg>